<?xml version="1.0" encoding="UTF-8"?>
<svg width="752pt" height="752pt" version="1.1" viewBox="0 0 752 752" xmlns="http://www.w3.org/2000/svg">
 <g>
  <path d="m198.41 420.4v-12.328c0-5.2852-2.8242-10.172-7.4023-12.816-4.5781-2.6406-10.219-2.6406-14.797 0-4.582 2.6445-7.4023 7.5312-7.4023 12.816v12.328c0 5.2891 2.8203 10.176 7.4023 12.816 4.5781 2.6445 10.219 2.6445 14.797 0 4.5781-2.6406 7.4023-7.5273 7.4023-12.816z"/>
  <path d="m509.2 168.81h-266.39c-19.621 0.023437-38.43 7.8281-52.301 21.699-13.871 13.871-21.676 32.68-21.699 52.301v103.6-0.003906c0 5.2891 2.8203 10.172 7.4023 12.816 4.5781 2.6445 10.219 2.6445 14.797 0 4.5781-2.6445 7.4023-7.5273 7.4023-12.816v-59.199h44.398c5.2852 0 10.172-2.8203 12.816-7.3984 2.6406-4.5781 2.6406-10.219 0-14.797-2.6445-4.582-7.5312-7.4023-12.816-7.4023h-44.398v-14.797c0.011719-11.773 4.6914-23.059 13.016-31.383s19.609-13.004 31.383-13.016h266.39c11.773 0.011719 23.059 4.6914 31.379 13.016 8.3242 8.3242 13.008 19.609 13.02 31.383v14.797h-268.24c-5.2891 0-10.172 2.8203-12.816 7.4023-2.6445 4.5781-2.6445 10.219 0 14.797 2.6445 4.5781 7.5273 7.3984 12.816 7.3984h268.24v221.99c-0.011719 11.773-4.6953 23.059-13.02 31.379-8.3203 8.3242-19.605 13.008-31.379 13.02h-266.39c-11.773-0.011719-23.059-4.6953-31.383-13.02-8.3242-8.3203-13.004-19.605-13.016-31.379v-44.398c0-5.2852-2.8242-10.172-7.4023-12.816-4.5781-2.6445-10.219-2.6445-14.797 0-4.582 2.6445-7.4023 7.5312-7.4023 12.816v44.398c0.023437 19.617 7.8281 38.426 21.699 52.301 13.871 13.871 32.68 21.676 52.301 21.695h266.39c19.617-0.019531 38.426-7.8242 52.301-21.695 13.871-13.875 21.676-32.684 21.695-52.301v-266.39c-0.019531-19.621-7.8242-38.43-21.695-52.301-13.875-13.871-32.684-21.676-52.301-21.699z"/>
  <path d="m509.2 242.81c5.2891 0 10.172-2.8242 12.816-7.4023s2.6445-10.219 0-14.797c-2.6445-4.582-7.5273-7.4023-12.816-7.4023h-14.797c-5.2891 0-10.176 2.8203-12.82 7.4023-2.6406 4.5781-2.6406 10.219 0 14.797 2.6445 4.5781 7.5312 7.4023 12.82 7.4023z"/>
  <path d="m450 242.81c5.2852 0 10.172-2.8242 12.816-7.4023 2.6406-4.5781 2.6406-10.219 0-14.797-2.6445-4.582-7.5312-7.4023-12.816-7.4023h-14.801c-5.2891 0-10.172 2.8203-12.816 7.4023-2.6445 4.5781-2.6445 10.219 0 14.797 2.6445 4.5781 7.5273 7.4023 12.816 7.4023z"/>
  <path d="m390.8 242.81c5.2891 0 10.172-2.8242 12.816-7.4023 2.6445-4.5781 2.6445-10.219 0-14.797-2.6445-4.582-7.5273-7.4023-12.816-7.4023h-14.801c-5.2852 0-10.172 2.8203-12.816 7.4023-2.6406 4.5781-2.6406 10.219 0 14.797 2.6445 4.5781 7.5312 7.4023 12.816 7.4023z"/>
  <path d="m287.2 509.2c0 3.9258 1.5586 7.6914 4.332 10.469 2.7773 2.7734 6.543 4.332 10.469 4.332h148c3.9258 0 7.6914-1.5586 10.465-4.332 2.7773-2.7773 4.3359-6.543 4.332-10.469 0-37.648-6.8203-70.891-45.973-92.539 10.73-11.242 16.609-26.254 16.367-41.793-0.24219-15.539-6.582-30.359-17.656-41.266-11.074-10.902-25.992-17.012-41.535-17.012-15.539 0-30.457 6.1094-41.531 17.012-11.074 10.906-17.418 25.727-17.656 41.266-0.24219 15.539 5.6367 30.551 16.367 41.793-39.062 21.602-45.977 55.523-45.977 92.539zm88.797-162.79c7.8516 0 15.379 3.1172 20.93 8.668 5.5508 5.5508 8.6719 13.082 8.6719 20.93 0 7.8516-3.1211 15.379-8.6719 20.93-5.5508 5.5508-13.078 8.6719-20.93 8.6719-7.8477 0-15.379-3.1211-20.93-8.6719-5.5508-5.5508-8.668-13.078-8.668-20.93 0.011718-7.8438 3.1328-15.367 8.6797-20.918 5.5508-5.5469 13.074-8.668 20.918-8.6797zm0 88.797c15.695 0.015625 30.746 6.2578 41.844 17.355 11.098 11.098 17.34 26.148 17.355 41.844h-118.39c0.015624-15.695 6.2578-30.746 17.355-41.844 11.098-11.098 26.145-17.34 41.84-17.355z"/>
 </g>
</svg>
