<?xml version="1.0" encoding="utf-8"?>
<!-- Generator: Adobe Illustrator 21.1.0, SVG Export Plug-In . SVG Version: 6.00 Build 0)  -->
<svg version="1.1" id="Layer_1" xmlns="http://www.w3.org/2000/svg" xmlns:xlink="http://www.w3.org/1999/xlink" x="0px" y="0px"
	 width="700px" height="700px" viewBox="0 0 700 700" style="enable-background:new 0 0 700 700;" xml:space="preserve">
<style type="text/css">
	.st0{fill:none;}
	.st1{fill:#373D4A;}
	.st2{fill:#5D667C;}
	.st3{fill:#464D5D;}
	.st4{fill:#20232A;}
	.st5{fill:#4E5567;}
	.st6{fill:#2F343F;}
	.st7{fill:#7CE490;}
	.st8{fill:#D1F7DD;}
	.st9{fill:#9DEBAF;}
	.st10{fill:#47D862;}
</style>
<g>
	<rect x="0" y="0" class="st0" width="700" height="700"/>
	<g>
		<g>
			<path class="st1" d="M170.6,488.4c3,13.1,16,27,28.8,30.9l180.7,55.3c12.8,3.9,31.3-0.4,41.2-9.5l138.2-128.9
				c9.8-9.1,15.4-27.3,12.3-40.4l-42.5-184.1c-3-13.1-16-27-28.8-30.9l-180.7-55.3c-12.8-3.9-31.3,0.4-41.2,9.5L140.5,263.8
				c-9.8,9.1-15.4,27.3-12.3,40.4L170.6,488.4z"/>
			<path class="st2" d="M294,126.4l-37.7,123.1l227.4,69.5L521.4,196c-5.6-7.1-13.2-12.9-20.9-15.3l-99.6-30.5l-81.2-24.8
				C312.2,123.1,302.6,123.7,294,126.4z"/>
			<path class="st3" d="M184.4,510.2l125.5-29l-53.5-231.7l-125.5,29c-3.3,8.4-4.6,17.9-2.8,25.7l42.5,184.2
				C172.5,496.2,177.7,504.2,184.4,510.2z"/>
			<path class="st4" d="M559.5,436.1c5.8-5.4,10.1-14,12-22.9l-87.8-94.2L309.9,481.3l87.8,94.2c8.9-1.3,17.8-5,23.6-10.4
				L559.5,436.1z"/>
			<path class="st5" d="M571.9,395.7l-42.5-184.1c-1.2-5.3-4.1-10.8-8-15.6l-37.6,123.1l87.8,94.2
				C572.9,407.2,573.1,401.1,571.9,395.7z"/>
			<path class="st6" d="M397.7,575.5l-87.8-94.2l-125.5,29c4.6,4.1,9.8,7.4,14.9,9l181.2,55.4C385.7,576.1,391.7,576.3,397.7,575.5z
				"/>
			<path class="st5" d="M256.4,249.6L294,126.4c-5.8,1.9-11.2,4.7-15.2,8.4l-138.4,129c-4,3.7-7.3,8.9-9.5,14.7L256.4,249.6z"/>
		</g>
		<g>
			<path class="st7" d="M467.9,409.5c-8.3-8.9-19.6-14.1-31.8-14.5c-6.4-0.2-12.6,0.9-18.3,3.2l-50.4-54l21.6-70.6
				c6.2-0.5,12.2-2.2,17.9-5.2c10.8-5.7,18.7-15.3,22.2-27c3.6-11.7,2.4-24-3.3-34.8c-5.7-10.8-15.3-18.7-27-22.2
				c-24.1-7.4-49.6,6.2-57,30.3c-3.6,11.7-2.4,24,3.3,34.8c3,5.6,7,10.4,11.9,14.3l-21.6,70.6l-72,16.6c-3.5-5.1-8-9.5-13.4-12.9
				c-10.3-6.5-22.6-8.5-34.5-5.8h0c-24.5,5.7-39.9,30.2-34.2,54.7c2.7,11.9,10,22,20.3,28.4c7.3,4.6,15.6,7,24.1,7
				c3.4,0,6.9-0.4,10.4-1.2c11.9-2.7,22-9.9,28.4-20.3c3.4-5.4,5.5-11.3,6.4-17.4l72-16.6l50.4,54.1c-7.8,16.4-5.3,36.7,7.8,50.7
				c8.3,8.9,19.6,14.1,31.8,14.5c0.5,0,1.1,0,1.6,0c11.6,0,22.6-4.3,31.1-12.3C484,456.8,485,427.9,467.9,409.5z M355.2,244
				c-4.3-8.1-5.2-17.3-2.5-26c4.5-14.7,18.1-24.2,32.7-24.2c3.3,0,6.7,0.5,10,1.5c8.7,2.7,15.9,8.6,20.2,16.6
				c4.3,8.1,5.2,17.3,2.5,26l0,0c-2.7,8.7-8.6,15.9-16.6,20.2c-2.8,1.5-5.8,2.5-8.8,3.2l8.7-28.5c2.7-8.8-2.3-18.2-11.1-20.9
				c-8.8-2.7-18.2,2.3-20.9,11.1l-8.7,28.5C358.6,249.4,356.7,246.8,355.2,244z M254.8,394.9c-4.8,7.7-12.4,13.1-21.3,15.2
				c-8.9,2.1-18.1,0.5-25.8-4.3c-7.7-4.8-13.1-12.4-15.2-21.3c-4.2-18.4,7.3-36.8,25.6-41h0c2.6-0.6,5.2-0.9,7.8-0.9
				c6.3,0,12.5,1.8,18.1,5.2c2.7,1.7,5.1,3.7,7.2,6l-29,6.7c-9,2.1-14.6,11.1-12.5,20.1c1.8,7.7,8.7,13,16.3,13
				c1.2,0,2.5-0.1,3.8-0.4l29-6.7C257.8,389.4,256.5,392.2,254.8,394.9z M457.8,465.6c-6.7,6.2-15.4,9.5-24.5,9.2
				c-9.1-0.3-17.6-4.2-23.8-10.9h0c-8.7-9.3-11.2-22.3-7.5-33.7l20.3,21.8c3.3,3.5,7.8,5.3,12.2,5.3c4.1,0,8.2-1.5,11.4-4.5
				c6.8-6.3,7.1-16.9,0.8-23.6l-20.3-21.8c2.6-0.6,5.3-1,8-1c0.4,0,0.8,0,1.2,0c9.1,0.3,17.6,4.2,23.8,10.9
				C472.3,431.1,471.6,452.8,457.8,465.6z"/>
			<path class="st8" d="M389,273.5c6.2-0.5,12.2-2.2,17.9-5.2c10.8-5.7,18.7-15.3,22.2-27c3.6-11.7,2.4-24-3.3-34.8
				c-5.7-10.8-15.3-18.7-27-22.2c-24.1-7.4-49.6,6.2-57,30.3c-3.6,11.7-2.4,24,3.3,34.8c3,5.6,7,10.4,11.9,14.3l-4.7,15.2l32,9.8
				L389,273.5z M360.7,251.6c-2.1-2.2-4-4.8-5.5-7.6c-4.3-8.1-5.2-17.3-2.5-26c4.5-14.7,18.1-24.2,32.7-24.2c3.3,0,6.7,0.5,10,1.5
				c8.7,2.7,15.9,8.6,20.2,16.6c4.3,8.1,5.2,17.3,2.5,26l0,0c-2.7,8.7-8.6,15.9-16.6,20.2c-2.8,1.5-5.8,2.5-8.8,3.2l8.7-28.5
				c2.7-8.8-2.3-18.2-11.1-20.9c-8.8-2.7-18.2,2.3-20.9,11.1L360.7,251.6z"/>
			<path class="st9" d="M263.4,351c-3.5-5.1-8-9.5-13.4-12.9c-10.3-6.5-22.6-8.5-34.5-5.8h0c-24.5,5.7-39.9,30.2-34.2,54.7
				c2.7,11.9,10,22,20.3,28.4c7.3,4.6,15.6,7,24.1,7c3.4,0,6.9-0.4,10.4-1.2c11.9-2.7,22-9.9,28.4-20.3c3.4-5.4,5.5-11.3,6.4-17.4
				l15.5-3.6l-7.5-32.6L263.4,351z M254.8,394.9c-4.8,7.7-12.4,13.1-21.3,15.2c-8.9,2.1-18.1,0.5-25.8-4.3
				c-7.7-4.8-13.1-12.4-15.2-21.3c-4.2-18.4,7.3-36.8,25.6-41h0c2.6-0.6,5.2-0.9,7.8-0.9c6.3,0,12.5,1.8,18.1,5.2
				c2.7,1.7,5.1,3.7,7.2,6l-29,6.7c-9,2.1-14.6,11.1-12.5,20.1c1.8,7.7,8.7,13,16.3,13c1.2,0,2.5-0.1,3.8-0.4l29-6.7
				C257.8,389.4,256.5,392.2,254.8,394.9z"/>
			<path class="st10" d="M393.3,421c-7.8,16.4-5.3,36.7,7.8,50.7c8.3,8.9,19.6,14.1,31.8,14.5c0.5,0,1.1,0,1.6,0
				c11.6,0,22.6-4.3,31.1-12.3c18.4-17.2,19.4-46.1,2.3-64.5c-8.3-8.9-19.6-14.1-31.8-14.5c-6.4-0.2-12.6,0.9-18.3,3.2l-8.7-9.4
				l-24.5,22.8L393.3,421z M402,430.2l20.3,21.8c3.3,3.5,7.8,5.3,12.2,5.3c4.1,0,8.2-1.5,11.4-4.5c6.8-6.3,7.1-16.9,0.8-23.6
				l-20.3-21.8c2.6-0.6,5.3-1,8-1c0.4,0,0.8,0,1.2,0c9.1,0.3,17.6,4.2,23.8,10.9c12.8,13.8,12.1,35.5-1.7,48.3
				c-6.7,6.2-15.4,9.5-24.5,9.2c-9.1-0.3-17.6-4.2-23.8-10.9h0C400.8,454.6,398.3,441.6,402,430.2z"/>
		</g>
	</g>
</g>
</svg>
